<?xml version="1.0" encoding="UTF-8" standalone="no"?>
<svg
   width="24.0px"
   height="24.0px"
   viewBox="0 0 24.0 24.0"
   version="1.1"
   id="SVGRoot"
   sodipodi:docname="bmr-source.svg"
   inkscape:version="1.1.1 (c3084ef, 2021-09-22)"
   xmlns:inkscape="http://www.inkscape.org/namespaces/inkscape"
   xmlns:sodipodi="http://sodipodi.sourceforge.net/DTD/sodipodi-0.dtd"
   xmlns="http://www.w3.org/2000/svg"
   xmlns:svg="http://www.w3.org/2000/svg"
   xmlns:rdf="http://www.w3.org/1999/02/22-rdf-syntax-ns#"
   xmlns:cc="http://creativecommons.org/ns#"
   xmlns:dc="http://purl.org/dc/elements/1.1/">
  <defs
     id="defs10">
    <linearGradient
       id="linearGradient2887"
       inkscape:swatch="solid">
      <stop
         style="stop-color:#000000;stop-opacity:1;"
         offset="0"
         id="stop2885" />
    </linearGradient>
  </defs>
  <sodipodi:namedview
     id="base"
     pagecolor="#ffffff"
     bordercolor="#666666"
     borderopacity="1.0"
     inkscape:pageopacity="0.0"
     inkscape:pageshadow="2"
     inkscape:zoom="21.887454"
     inkscape:cx="2.3529461"
     inkscape:cy="6.8989294"
     inkscape:document-units="px"
     inkscape:current-layer="g262"
     inkscape:document-rotation="0"
     showgrid="true"
     inkscape:window-width="1920"
     inkscape:window-height="1002"
     inkscape:window-x="0"
     inkscape:window-y="0"
     inkscape:window-maximized="0"
     inkscape:pagecheckerboard="0"
     inkscape:lockguides="false"
     inkscape:snap-grids="true">
    <inkscape:grid
       type="xygrid"
       id="grid19" />
  </sodipodi:namedview>
  <metadata
     id="metadata13">
    <rdf:RDF>
      <cc:Work
         rdf:about="">
        <dc:format>image/svg+xml</dc:format>
        <dc:type
           rdf:resource="http://purl.org/dc/dcmitype/StillImage" />
      </cc:Work>
    </rdf:RDF>
  </metadata>
  <g
     inkscape:label="Layer 1"
     inkscape:groupmode="layer"
     id="layer1"
     style="display:inline">
    <g
       aria-label="50"
       id="text28-0"
       style="font-style:normal;font-weight:normal;font-size:7.67416px;line-height:1.25;font-family:sans-serif;fill:#000000;fill-opacity:1;stroke:none;stroke-width:0.959271" />
    <g
       aria-label="50"
       id="text28-0-3"
       style="font-style:normal;font-weight:normal;font-size:7.67416px;line-height:1.25;font-family:sans-serif;fill:#000000;fill-opacity:1;stroke:none;stroke-width:0.959271">
      <g
         id="g414">
        <g
           id="g262">
          <path
             id="path5077"
             style="stroke-width:0"
             inkscape:transform-center-x="0.0071103425"
             inkscape:transform-center-y="-0.25224704"
             d="M 13.608976,5.1219582 12.005273,4.0260766 10.420391,5.1490059 10.967064,3.2851486 9.4093422,2.124842 11.350904,2.0687951 11.97306,0.22875646 l 0.653279,1.82921944 1.942235,0.023101 -1.537815,1.1865654 z m -1.596671,0.24291 c -1.485861,0 -2.9717237,0.3684606 -4.306641,1.1043456 C 5.3025252,7.7939653 3.7147046,10.150372 3.4205567,12.778442 L 3.3375,13.112207 v 0.853637 L 12,18.9677 V 19 l 8.6625,-5.001859 V 13.144504 L 20.62405,12.992233 C 20.39477,10.278322 18.787215,7.8298693 16.318945,6.4692138 14.984028,5.7333289 13.498166,5.3648682 12.012305,5.3648682 Z m 0,1.7826414 c 1.191601,10e-8 2.382434,0.2930167 3.446851,0.8797853 1.995779,1.100191 3.252858,3.0550281 3.402245,5.2018071 L 12,17.180445 v -0.0323 L 5.163208,13.212183 C 5.3180411,11.072094 6.5734127,9.1245773 8.5639161,8.0272949 9.6283317,7.4405261 10.820703,7.1475096 12.012305,7.1475096 Z M 3.3375,14.50879 12,19.510644 V 21.3302 L 3.3375,16.328344 Z m 17.325,0 L 12,19.510644 V 21.3302 l 8.6625,-5.001856 z M 3.3375,16.87129 12,21.873144 V 23.6927 L 3.3375,18.690844 Z m 17.325,0 L 12,21.873144 V 23.6927 l 8.6625,-5.001856 z" />
        </g>
      </g>
    </g>
  </g>
</svg>
