<?xml version="1.0" encoding="UTF-8" standalone="no"?>
<svg
   xmlns:dc="http://purl.org/dc/elements/1.1/"
   xmlns:cc="http://creativecommons.org/ns#"
   xmlns:rdf="http://www.w3.org/1999/02/22-rdf-syntax-ns#"
   xmlns:svg="http://www.w3.org/2000/svg"
   xmlns="http://www.w3.org/2000/svg"
   xmlns:sodipodi="http://sodipodi.sourceforge.net/DTD/sodipodi-0.dtd"
   xmlns:inkscape="http://www.inkscape.org/namespaces/inkscape"
   width="24.0px"
   height="24.0px"
   viewBox="0 0 24.0 24.0"
   version="1.1"
   id="SVGRoot"
   sodipodi:docname="fifty-fifty-source.svg"
   inkscape:version="1.0.2 (e86c8708, 2021-01-15)">
  <defs
     id="defs10" />
  <sodipodi:namedview
     id="base"
     pagecolor="#ffffff"
     bordercolor="#666666"
     borderopacity="1.0"
     inkscape:pageopacity="0.0"
     inkscape:pageshadow="2"
     inkscape:zoom="14.635616"
     inkscape:cx="29.735319"
     inkscape:cy="9.6089138"
     inkscape:document-units="px"
     inkscape:current-layer="layer1"
     inkscape:document-rotation="0"
     showgrid="true"
     inkscape:window-width="1252"
     inkscape:window-height="984"
     inkscape:window-x="0"
     inkscape:window-y="25"
     inkscape:window-maximized="0">
    <inkscape:grid
       type="xygrid"
       id="grid19" />
  </sodipodi:namedview>
  <metadata
     id="metadata13">
    <rdf:RDF>
      <cc:Work
         rdf:about="">
        <dc:format>image/svg+xml</dc:format>
        <dc:type
           rdf:resource="http://purl.org/dc/dcmitype/StillImage" />
        <dc:title></dc:title>
      </cc:Work>
    </rdf:RDF>
  </metadata>
  <g
     inkscape:label="Layer 1"
     inkscape:groupmode="layer"
     id="layer1">
    <g
       aria-label="50"
       id="text28-0"
       style="font-style:normal;font-weight:normal;font-size:7.67416px;line-height:1.25;font-family:sans-serif;fill:#000000;fill-opacity:1;stroke:none;stroke-width:0.959271" />
    <g
       aria-label="50"
       id="text28-0-3"
       style="font-style:normal;font-weight:normal;font-size:7.67416px;line-height:1.25;font-family:sans-serif;fill:#000000;fill-opacity:1;stroke:none;stroke-width:0.959271">
      <path
         id="path154"
         style="font-style:normal;font-variant:normal;font-weight:bold;font-stretch:normal;font-size:7.67416px;font-family:sans-serif;-inkscape-font-specification:'sans-serif Bold';stroke-width:1.35662"
         d="m 10.086389,12.393007 q 0,1.408928 -0.1274029,2.525578 -0.1274034,1.109157 -0.397198,1.821114 -0.277289,0.726946 -0.7119582,1.101662 -0.4346693,0.36722 -1.0716845,0.36722 -0.6257738,0 -1.0679373,-0.374714 Q 6.2680446,17.459151 5.9945027,16.724711 5.7172138,15.99027 5.5935579,14.903595 5.469902,13.809429 5.469902,12.400501 q 0,-1.453894 0.127403,-2.5255777 Q 5.7247081,8.8032394 6.001997,8.0613035 6.279286,7.3268622 6.7214495,6.9596416 7.1636131,6.5924214 7.7781454,6.5924214 q 0.6407624,0 1.0754316,0.3822089 0.4346692,0.3747149 0.7119582,1.1241452 0.2735418,0.7344399 0.3971979,1.8136198 0.1236559,1.0716837 0.1236559,2.4806117 z m -1.4501466,0 q 0,-2.02346 -0.1985989,-2.8778096 -0.1985988,-0.861844 -0.6594981,-0.861844 -0.4608993,0 -0.6594981,0.861844 -0.1985989,0.8543496 -0.1985989,2.8927976 0,1.985989 0.202346,2.862823 0.202346,0.876831 0.655751,0.876831 0.453405,0 0.655751,-0.876831 0.202346,-0.876834 0.202346,-2.877811 z m -4.088139,1.806126 q 0,0.869339 -0.1648746,1.618768 -0.1611274,0.741935 -0.4721407,1.27403 Q 3.5663505,17.661497 3.1166927,17.938787 2.670782,18.208581 2.0974683,18.208581 1.4267287,18.200981 0.96208226,17.991248 0.50118301,17.788901 0.20890543,17.534096 v -2.465624 h 0.15738023 q 0.34099051,0.404691 0.73444114,0.674485 0.3934506,0.269794 0.783154,0.269794 0.2360704,0 0.5096122,-0.104916 0.277289,-0.11242 0.4384164,-0.397197 0.127403,-0.232325 0.1911045,-0.472142 0.067449,-0.239818 0.067449,-0.741935 0,-0.389703 -0.089932,-0.666993 -0.086184,-0.284782 -0.224829,-0.457152 -0.202346,-0.247313 -0.4871292,-0.322255 -0.2847833,-0.08245 -0.5171065,-0.08245 -0.3372434,0 -0.6482567,0.119896 -0.30726623,0.11242 -0.53958943,0.224828 H 0.41874574 V 6.8172502 H 4.386976 V 8.9531254 H 1.7714664 v 1.8211136 q 0.1161616,-0.015 0.2922775,-0.02248 0.1798632,-0.015 0.3147605,-0.015 0.4608993,0 0.8206255,0.17986 0.3634734,0.17236 0.6257738,0.487128 0.3409905,0.412186 0.5320951,1.094168 0.1911046,0.674485 0.1911046,1.701206 z M 23.664824,12.442798 q 0,1.408928 -0.127403,2.525578 -0.127403,1.109156 -0.397197,1.821116 -0.277289,0.726946 -0.711959,1.10166 -0.434669,0.367221 -1.071684,0.367221 -0.625774,0 -1.067937,-0.374715 -0.442164,-0.374715 -0.715706,-1.109156 -0.277289,-0.73444 -0.400945,-1.821115 -0.123656,-1.094168 -0.123656,-2.503094 0,-1.453894 0.127403,-2.5255777 0.127404,-1.0716859 0.404693,-1.8136198 0.277288,-0.7344419 0.719452,-1.1016624 0.442164,-0.3672206 1.056696,-0.3672206 0.640762,0 1.075431,0.3822092 0.43467,0.3747148 0.711959,1.1241438 0.273542,0.7344418 0.397197,1.8136198 0.123656,1.0716857 0.123656,2.4806127 z m -1.450146,0 q 0,-2.023461 -0.198599,-2.8778106 -0.198599,-0.8618439 -0.659498,-0.8618439 -0.460899,0 -0.659498,0.8618439 -0.198599,0.8543496 -0.198599,2.8928006 0,1.985987 0.202346,2.862819 0.202346,0.876835 0.655751,0.876835 0.453405,0 0.655751,-0.876835 0.202346,-0.876832 0.202346,-2.877809 z m -4.088139,1.806125 q 0,0.869338 -0.164875,1.618768 -0.161127,0.741936 -0.47214,1.274032 -0.344738,0.569567 -0.794396,0.846855 -0.445911,0.269795 -1.019224,0.269795 -0.67074,-0.0074 -1.135386,-0.217336 -0.460899,-0.202346 -0.753177,-0.457152 v -2.465624 h 0.15738 q 0.340991,0.404693 0.734441,0.674488 0.393451,0.269794 0.783154,0.269794 0.236071,0 0.509612,-0.104916 0.277289,-0.11242 0.438417,-0.397198 0.127403,-0.232322 0.191104,-0.472139 0.06745,-0.239819 0.06745,-0.741937 0,-0.389704 -0.08993,-0.666991 -0.08619,-0.284785 -0.224829,-0.457153 -0.202346,-0.247312 -0.48713,-0.322255 -0.284783,-0.08245 -0.517106,-0.08245 -0.337244,0 -0.648257,0.119896 -0.307266,0.11242 -0.539589,0.22483 H 13.997181 V 6.8670358 h 3.96823 v 2.135874 h -2.615509 v 1.8211142 q 0.116161,-0.015 0.292277,-0.02248 0.179864,-0.015 0.314761,-0.015 0.460899,0 0.820625,0.17986 0.363474,0.172379 0.625774,0.487129 0.340991,0.412186 0.532095,1.094168 0.191105,0.674486 0.191105,1.701204 z m -4.998143,-8.8325994 0.915034,0.053808 -3.959027,13.9461914 -0.9150348,-0.0538 z" />
    </g>
  </g>
</svg>
