<?xml version="1.0" encoding="UTF-8" standalone="no"?>
<svg
   xmlns:dc="http://purl.org/dc/elements/1.1/"
   xmlns:cc="http://creativecommons.org/ns#"
   xmlns:rdf="http://www.w3.org/1999/02/22-rdf-syntax-ns#"
   xmlns:svg="http://www.w3.org/2000/svg"
   xmlns="http://www.w3.org/2000/svg"
   xmlns:sodipodi="http://sodipodi.sourceforge.net/DTD/sodipodi-0.dtd"
   xmlns:inkscape="http://www.inkscape.org/namespaces/inkscape"
   width="24.0px"
   height="24.0px"
   viewBox="0 0 24.0 24.0"
   version="1.1"
   id="SVGRoot"
   sodipodi:docname="l2e-source.svg"
   inkscape:version="1.0.2 (e86c8708, 2021-01-15)">
  <defs
     id="defs908" />
  <sodipodi:namedview
     id="base"
     pagecolor="#ffffff"
     bordercolor="#666666"
     borderopacity="1.0"
     inkscape:pageopacity="0.0"
     inkscape:pageshadow="2"
     inkscape:zoom="34.083333"
     inkscape:cx="9.8581907"
     inkscape:cy="13.056235"
     inkscape:document-units="px"
     inkscape:current-layer="Artboard"
     inkscape:document-rotation="0"
     showgrid="true"
     inkscape:window-width="1252"
     inkscape:window-height="984"
     inkscape:window-x="0"
     inkscape:window-y="25"
     inkscape:window-maximized="0">
    <inkscape:grid
       type="xygrid"
       id="grid917" />
  </sodipodi:namedview>
  <metadata
     id="metadata911">
    <rdf:RDF>
      <cc:Work
         rdf:about="">
        <dc:format>image/svg+xml</dc:format>
        <dc:type
           rdf:resource="http://purl.org/dc/dcmitype/StillImage" />
        <dc:title></dc:title>
      </cc:Work>
    </rdf:RDF>
  </metadata>
  <g
     inkscape:label="Layer 1"
     inkscape:groupmode="layer"
     id="layer1">
    <g
       id="Artboard"
       stroke="none"
       stroke-width="1"
       fill="none"
       fill-rule="evenodd"
       opacity="0.05"
       transform="matrix(0.06732029,0,0,0.06732029,1.2014497,-0.93898691)">
      <g
         id="page-background"
         transform="translate(0,17)"
         fill="#043448"
         fill-rule="nonzero">
        <g
           id="Group">
          <path
             id="path895"
             d="m 270.11798,268.2546 c -0.43518,0.32615 -1.00028,0.42376 -1.51958,0.26249 0.46099,-0.26053 0.99795,-0.35328 1.51958,-0.26249 z m -13.6845,1.7126 c -0.98441,0.69726 -2.10577,0.33755 -3.17075,0.41095 1.0182,-0.35036 2.09693,-0.49017 3.17075,-0.41095 z m 3.65064,-0.4513 c -0.98589,0.7004 -2.10974,0.33524 -3.17629,0.4116 1.02121,-0.34572 2.10075,-0.48561 3.17629,-0.4116 z m 3.65267,-0.44992 c -0.99078,0.70169 -2.1199,0.33044 -3.19059,0.41178 1.02656,-0.34387 2.1104,-0.48375 3.19059,-0.41178 z M 228.86377,111.43801 c -0.11504,-0.6289 -0.0163,-1.27822 0.28046,-1.84444 1.61807,-4.81497 3.24978,-9.625259 4.89511,-14.430872 0.14637,-0.430433 0.311,-0.85505 0.44472,-1.289361 0.10395,-0.460358 0.51925,-0.782576 0.99078,-0.768724 0.53055,-0.01551 1.06129,-0.0169 1.59249,-0.0169 27.15451,-6.77e-4 54.309,-9.2e-5 81.46346,0.0018 2.80604,4.61e-4 2.55631,-0.227035 2.56166,2.577245 0.009,4.401402 0.009,8.802742 8.3e-4,13.204012 0,0.6066 -0.006,1.21384 -0.0332,1.8197 0.009,0.19074 -0.0626,0.37647 -0.19699,0.51203 -0.13442,0.13556 -0.31948,0.20854 -0.51019,0.2012 -0.52972,0.0258 -1.06074,0.0333 -1.5911,0.0333 -29.27838,0.001 -58.5567,0.002 -87.83496,0.001 z M 92.736715,227.59333 c 0.18309,0.3982 0.125339,0.86575 -0.149134,1.20738 -2.750114,5.32419 -5.513979,10.6408 -8.246375,15.97386 -0.250194,0.74029 -0.98278,1.2056 -1.758873,1.11716 -0.451185,-0.0424 -0.909753,-0.006 -1.364906,-0.006 H 2.2404203 c -2.33575144,-0.001 -2.2326683,0.11449 -2.2326683,-2.23231 0,-18.06453 0,-36.12904 0,-54.19351 0,-31.95449 0.00138429,-63.90895 0.00415286,-95.863378 7.3828e-4,-3.423339 -0.37412629,-3.010633 3.04542854,-3.021251 5.6140169,-0.01736 11.2282186,-0.0051 16.8421426,-0.0042 0.531012,0 1.062209,0.0012 1.592944,0.01514 0.229362,-0.0269 0.459086,0.04727 0.629465,0.203229 0.170378,0.15596 0.264586,0.378308 0.258139,0.609257 0.01624,0.302929 0.01735,0.606873 0.01846,0.910355 0.0028,0.607241 0.0011,1.214483 0.0011,1.821632 0,43.415536 0.0022,86.831076 0.0065,130.246616 9.22e-4,3.65757 -0.463459,3.15051 3.104122,3.153 21.621989,0.0151 43.243947,0.0184 64.865875,0.01 0.813406,9e-5 1.626536,0.0357 2.360669,0.0529 z M 271.81539,248.3749 c -16.07728,0 -32.15456,-7.4e-4 -48.23184,-0.002 -2.96864,-8.3e-4 -2.712,0.26775 -2.71227,-2.66126 -0.003,-27.61698 -0.003,-55.23399 -0.002,-82.85103 0,-0.30348 -0.004,-0.60706 0.001,-0.91045 0.0288,-1.7317 0.0295,-1.73272 1.78047,-1.7582 0.37911,-0.006 0.75831,-0.001 1.13751,-0.001 29.50024,0 59.00047,0.002 88.50071,0.006 3.27476,0.001 2.91097,-0.41723 2.9225,2.88692 0.0157,4.47634 0.005,8.95277 0.003,13.42911 0,0.45508 0.007,0.91183 -0.0295,1.36461 0.007,0.1916 -0.0633,0.37796 -0.19533,0.51696 -0.132,0.139 -0.31442,0.21891 -0.50604,0.22166 -0.75674,0.0336 -1.51506,0.0475 -2.27263,0.0475 -21.91662,0.002 -43.83325,0.005 -65.74988,0.007 -3.69872,0.002 -3.2037,-0.43108 -3.20794,3.31218 -0.017,15.09828 -0.0183,30.19659 -0.004,45.29494 0.001,2.82145 -0.28479,2.60439 2.5218,2.60466 24.72254,0.003 49.44512,0.003 74.16772,0.002 0.68292,0 1.36509,0.002 2.04736,0.0167 0.23063,-0.0152 0.45629,0.0717 0.61712,0.23781 0.16083,0.16608 0.24057,0.39448 0.21806,0.62462 0.0135,0.30302 0.0162,0.60678 0.0163,0.91017 9.2e-4,5.0075 9.2e-4,10.01504 0,15.02261 0,0.30338 0.006,0.60862 -0.024,0.90961 -4e-5,0.39901 -0.32248,0.72291 -0.7213,0.72459 -0.68061,0.0347 -1.36306,0.0432 -2.04478,0.0433 -16.07752,0.002 -32.15489,0.002 -48.23211,0.001 z m -15.38191,21.5923 0.47435,-0.0396 c 1.06655,-0.0764 2.1904,0.2888 3.17629,-0.4116 l 0.46208,-0.0381 c 1.07051,-0.0813 2.19981,0.29 3.19059,-0.41179 1.60354,-0.31091 3.22914,-0.49445 4.86161,-0.54889 0.5193,0.16128 1.0844,0.0637 1.51958,-0.26248 5.56907,-0.66114 11.13855,-1.31888 16.70842,-1.97324 0.12099,-0.0141 0.25997,0.12594 0.54338,0.27366 -3.83198,18.87001 -7.67337,37.78654 -11.5873,57.05993 -1.29524,-2.1535 -2.45064,-4.38815 -3.45906,-6.69009 -1.08325,-2.17128 -2.1078,-4.37192 -3.16715,-6.55529 -1.05473,-2.17396 -2.12082,-4.34256 -3.15368,-6.45576 -0.72845,0.0451 -1.43029,0.29062 -2.02807,0.70954 -27.81476,13.3731 -56.58523,24.65788 -86.07332,33.76095 -9.35011,2.87232 -18.80294,5.35447 -28.39724,7.28699 -7.56911,1.61208 -15.26547,2.5539 -22.99981,2.81453 -5.6992,0.15022 -11.38123,-0.69012 -16.79323,-2.48363 -9.29521,-2.95963 -17.72851,-8.14298 -24.568674,-15.10062 -8.317786,-8.04584 -12.668445,-19.35025 -11.892029,-30.89933 0.299454,-6.44998 1.512082,-12.82484 3.601634,-18.93399 2.520207,-7.47891 5.699004,-14.71925 9.498969,-21.63578 5.487678,-10.23152 11.489571,-20.16657 17.48187,-30.10449 12.22665,-20.27699 25.25712,-40.03593 38.61649,-59.5778 11.21807,-16.40965 22.52934,-32.7555 33.79503,-49.13274 4.81732,-7.00308 9.94471,-13.78098 14.93875,-20.655815 5.4892,-7.360298 10.57462,-15.013539 15.23379,-22.925884 1.69584,-2.96373 3.29626,-5.97621 4.7576,-9.063752 0.68061,-1.438194 1.41198,-2.853675 2.16023,-4.258354 2.20017,-4.166713 3.68453,-8.673823 4.39104,-13.332907 0.24798,-1.57364 0.43264,-3.157158 0.67369,-4.731905 0.51989,-3.691315 0.36879,-7.44624 -0.44602,-11.083797 -0.3397,-1.629497 -0.87671,-3.216986 -1.28867,-4.832634 -0.19284,-0.817226 -0.72804,-1.511823 -1.46892,-1.90639 -2.70421,-1.535757 -5.54454,-2.81811 -8.48474,-3.83069 -5.79564,-2.037134 -11.79482,-3.440058 -17.89254,-4.184215 -8.95803,-1.141538 -17.99554,-1.534367 -27.01877,-1.174412 -6.59261,0.249285 -13.16668,0.806393 -19.72625,1.557666 -9.41848,1.058999 -18.77276,2.627175 -28.02182,4.697651 -16.084214,3.532869 -31.665127,9.059203 -46.38188,16.45101 -5.187122,2.527811 -10.069302,5.638978 -14.551981,9.273244 -2.455988,2.03538 -4.683893,4.331453 -6.644571,6.847879 -1.12575,1.433133 -2.056711,3.009196 -2.768572,4.687033 -0.862565,2.041604 -1.057135,4.303954 -0.555837,6.462963 0.341894,1.477656 0.813267,2.922298 1.40865,4.317167 0.38817,0.905237 0.683341,1.847612 0.880959,2.812589 0.243265,1.281975 -0.586476,2.031956 -1.891857,1.799658 C 42.573204,77.366234 41.645407,76.995196 40.818064,76.452512 39.792462,75.799851 38.849263,75.02585 38.008887,74.147266 33.872555,69.876525 30.850958,64.65253 29.21092,58.93659 27.376049,52.719519 28.425119,46.006873 32.069286,40.646867 c 2.10572,-3.166104 4.697237,-5.980253 7.679094,-8.338792 4.056828,-3.191499 8.408599,-5.98871 12.996228,-8.353657 C 63.128718,18.433501 74.06524,14.022287 85.373145,10.793794 96.368653,7.6079807 107.5599,5.1420647 118.87581,3.4117058 125.39497,2.3835407 131.93175,1.5019926 138.5,0.89853651 c 9.66652,-0.97566178 19.39745,-1.14443565 29.09196,-0.50457275 7.71995,0.53227784 15.36686,1.83962964 22.8254,3.90233704 8.78175,2.5004793 16.94386,6.8104362 23.96235,12.6531892 7.24284,5.823035 13.13142,13.1541 17.25651,21.483719 3.33377,6.598965 5.02392,13.906306 4.92649,21.299618 -0.18818,5.16198 -1.10743,10.271144 -2.73028,15.17476 -2.25075,6.852596 -5.27122,13.42764 -9.00348,19.599028 -3.78482,6.496845 -8.06946,12.667405 -12.31165,18.864555 -18.72785,27.35828 -37.46299,54.71175 -56.20542,82.06043 -8.18962,11.95417 -16.41098,23.88655 -24.29827,36.04487 -9.65088,14.62945 -18.49496,29.77592 -26.49265,45.37156 -3.47769,6.9103 -6.812806,13.88984 -9.606295,21.11229 -1.782516,4.51629 -3.139383,9.18931 -4.052911,13.95815 -0.593338,3.28791 -0.811085,6.63264 -0.649046,9.96977 -0.06312,0.84962 0.481227,1.62596 1.301229,1.85579 2.919167,1.06831 5.906011,1.94153 8.940823,2.6139 9.64136,2.13711 19.53542,2.90577 29.39097,2.28337 4.84401,-0.33028 9.65701,-1.01812 14.39971,-2.0579 28.09659,-5.7883 55.32718,-15.18689 81.01449,-27.96201 7.48702,-3.68339 14.74784,-7.81014 21.74381,-12.35829 0.63538,-0.41363 1.25877,-0.84591 1.88207,-1.27764 0.17675,-0.0807 0.29696,-0.24965 0.31527,-0.44315 0.0183,-0.19349 -0.0681,-0.38203 -0.22658,-0.49444 -0.61084,-0.56754 -1.25324,-1.10203 -1.89463,-1.6355 -3.44152,-2.86279 -6.88476,-5.72345 -10.32972,-8.58198 -0.3493,-0.29028 -0.69833,-0.58343 -1.01856,-0.90417 -0.0797,-0.12022 -0.0981,-0.27101 -0.0497,-0.40689 0.0425,-0.10535 0.20303,-0.17063 0.32217,-0.23405 0.0718,-0.0245 0.14722,-0.0365 0.22306,-0.0355 4.89114,-0.60364 9.78262,-1.20565 14.67444,-1.80603 0.4498,-0.0548 0.90735,-0.0455 1.36112,-0.066 1.06498,-0.0731 2.18634,0.28658 3.17075,-0.41058 z" />
        </g>
      </g>
    </g>
  </g>
</svg>
