<?xml version="1.0" standalone="no"?>
<!DOCTYPE svg PUBLIC "-//W3C//DTD SVG 20010904//EN"
 "http://www.w3.org/TR/2001/REC-SVG-20010904/DTD/svg10.dtd">
<svg version="1.0" xmlns="http://www.w3.org/2000/svg"
 width="1024.000000pt" height="1024.000000pt" viewBox="0 0 1024.000000 1024.000000"
 preserveAspectRatio="xMidYMid meet">
<metadata>
Created by potrace 1.11, written by Peter Selinger 2001-2013
</metadata>
<g transform="translate(0.000000,1024.000000) scale(0.100000,-0.100000)"
fill="#000000" stroke="none">
<path d="M5005 9371 c-204 -34 -398 -132 -513 -259 -52 -58 -112 -148 -142
-216 -151 -334 -101 -698 132 -969 59 -67 182 -162 256 -196 l52 -24 0 -69 0
-68 -242 -2 -243 -3 -3 -238 c-2 -219 -1 -238 15 -244 10 -4 119 -35 243 -68
l225 -60 5 -365 c4 -258 9 -371 17 -385 26 -44 649 -829 661 -833 9 -3 12 161
12 791 l0 795 63 16 c34 10 141 38 237 64 l175 47 0 240 0 240 -237 3 -238 2
0 64 0 64 43 17 c65 26 198 118 250 174 159 170 247 417 234 661 -7 127 -27
208 -78 318 -141 306 -426 496 -759 507 -63 2 -137 0 -165 -4z m234 -452 c120
-27 220 -102 268 -201 43 -89 57 -157 50 -245 -19 -247 -253 -429 -494 -384
-181 33 -293 136 -338 308 -58 224 75 458 295 517 65 17 157 20 219 5z"/>
<path d="M3725 6737 c-112 -37 -205 -121 -256 -230 l-34 -72 0 -1690 0 -1690
33 -67 c40 -81 100 -143 172 -177 48 -23 68 -26 155 -26 90 0 105 3 154 28 99
52 168 144 191 255 7 30 9 456 8 1200 -2 633 -1 1152 2 1152 3 0 14 -13 25
-28 10 -15 153 -197 317 -405 l298 -378 0 -877 c0 -527 -4 -905 -10 -947 -17
-119 -49 -226 -96 -324 -37 -75 -60 -108 -122 -170 -130 -130 -262 -181 -465
-181 -314 0 -680 149 -1011 412 -192 153 -409 384 -563 601 -61 85 -70 103
-57 110 46 26 215 50 358 51 l149 1 20 27 c28 38 15 63 -75 137 -205 169 -498
295 -775 332 -155 20 -522 0 -557 -32 -16 -15 -36 -143 -42 -279 -17 -351 83
-682 293 -968 76 -103 118 -142 150 -142 57 0 63 19 63 191 0 116 5 176 20
244 11 49 24 93 28 97 5 5 63 -58 129 -139 528 -646 1162 -1147 1907 -1509
293 -141 644 -275 911 -347 l90 -24 85 24 c768 217 1480 597 2100 1122 247
209 562 534 753 778 45 57 84 103 88 103 10 0 36 -105 50 -199 7 -52 9 -127 6
-193 -6 -99 -5 -110 13 -128 37 -37 73 -26 130 37 152 170 279 429 335 683 26
116 30 427 8 555 l-18 100 -55 12 c-150 35 -458 31 -634 -7 -248 -54 -504
-182 -675 -336 -66 -60 -75 -85 -43 -123 16 -21 26 -22 197 -25 136 -2 197 -7
250 -20 39 -11 74 -23 79 -27 23 -20 -218 -324 -400 -504 -332 -330 -669 -525
-1029 -595 -369 -71 -649 47 -789 330 -55 112 -92 251 -106 398 -12 123 -14
862 -2 862 4 -1 32 -33 63 -73 248 -321 551 -701 592 -744 96 -99 225 -144
356 -122 162 26 283 131 332 290 18 59 19 120 19 1714 0 1626 0 1654 -20 1716
-37 117 -122 204 -228 235 -77 23 -192 16 -255 -15 -62 -30 -138 -106 -168
-168 -34 -69 -37 -182 -38 -1403 -1 -1024 -1 -1044 -20 -1025 -10 11 -447 567
-971 1235 -523 668 -978 1240 -1010 1271 -86 84 -152 112 -270 116 -60 2 -110
-2 -135 -10z"/>
</g>
</svg>
