<?xml version="1.0" encoding="UTF-8" standalone="no"?>
<svg
   width="24.0px"
   height="24.0px"
   viewBox="0 0 24.0 24.0"
   version="1.1"
   id="SVGRoot"
   sodipodi:docname="bmr-source.svg"
   inkscape:version="1.1.1 (c3084ef, 2021-09-22)"
   xmlns:inkscape="http://www.inkscape.org/namespaces/inkscape"
   xmlns:sodipodi="http://sodipodi.sourceforge.net/DTD/sodipodi-0.dtd"
   xmlns="http://www.w3.org/2000/svg"
   xmlns:svg="http://www.w3.org/2000/svg"
   xmlns:rdf="http://www.w3.org/1999/02/22-rdf-syntax-ns#"
   xmlns:cc="http://creativecommons.org/ns#"
   xmlns:dc="http://purl.org/dc/elements/1.1/">
  <defs
     id="defs10">
    <linearGradient
       id="linearGradient2887"
       inkscape:swatch="solid">
      <stop
         style="stop-color:#000000;stop-opacity:1;"
         offset="0"
         id="stop2885" />
    </linearGradient>
  </defs>
  <sodipodi:namedview
     id="base"
     pagecolor="#ffffff"
     bordercolor="#666666"
     borderopacity="1.0"
     inkscape:pageopacity="0.0"
     inkscape:pageshadow="2"
     inkscape:zoom="21.887454"
     inkscape:cx="-0.66247998"
     inkscape:cy="6.8989294"
     inkscape:document-units="px"
     inkscape:current-layer="g262"
     inkscape:document-rotation="0"
     showgrid="true"
     inkscape:window-width="1920"
     inkscape:window-height="1002"
     inkscape:window-x="0"
     inkscape:window-y="0"
     inkscape:window-maximized="0"
     inkscape:pagecheckerboard="0"
     inkscape:lockguides="false"
     inkscape:snap-grids="true">
    <inkscape:grid
       type="xygrid"
       id="grid19" />
  </sodipodi:namedview>
  <metadata
     id="metadata13">
    <rdf:RDF>
      <cc:Work
         rdf:about="">
        <dc:format>image/svg+xml</dc:format>
        <dc:type
           rdf:resource="http://purl.org/dc/dcmitype/StillImage" />
      </cc:Work>
    </rdf:RDF>
  </metadata>
  <g
     inkscape:label="Layer 1"
     inkscape:groupmode="layer"
     id="layer1"
     style="display:inline">
    <g
       aria-label="50"
       id="text28-0"
       style="font-style:normal;font-weight:normal;font-size:7.67416px;line-height:1.25;font-family:sans-serif;fill:#000000;fill-opacity:1;stroke:none;stroke-width:0.959271" />
    <g
       aria-label="50"
       id="text28-0-3"
       style="font-style:normal;font-weight:normal;font-size:7.67416px;line-height:1.25;font-family:sans-serif;fill:#000000;fill-opacity:1;stroke:none;stroke-width:0.959271">
      <g
         id="g414">
        <g
           id="g262"
           style="fill:#000000">
          <path
             id="path4673"
             style="color:#000000;fill:#000000;stroke-width:0.791398;-inkscape-stroke:none"
             d="m 12.012891,2.6217772 c -1.556617,0 -3.1132344,0.3860064 -4.5117192,1.1569336 -2.5175739,1.3878349 -4.1810051,3.8564515 -4.48916,6.6096682 L 2.925,10.738037 v 0.894287 L 12,16.872363 v 0.03384 L 21.075,11.66616 V 10.771874 L 21.03472,10.612352 C 20.794521,7.7692051 19.110415,5.2041593 16.524609,3.7787108 15.126124,3.0077837 13.569508,2.6217772 12.012891,2.6217772 Z m 0,1.8675292 c 1.248344,10e-8 2.495883,0.3069698 3.610986,0.9216798 2.090817,1.1525811 3.407756,3.2005058 3.564258,5.4495128 L 12,15 V 14.96616 L 4.8376464,10.842773 C 4.9998526,8.600775 6.3150038,6.5605201 8.400293,5.4109862 9.5153951,4.796276 10.764546,4.4893064 12.012891,4.4893064 Z M 2.925,12.201124 12,17.441162 v 1.906201 L 2.925,14.107324 Z m 18.15,0 L 12,17.441162 v 1.906201 l 9.075,-5.240039 z m -18.15,2.475 9.075,5.240038 v 1.906201 L 2.925,16.582324 Z m 18.15,0 L 12,19.916162 v 1.906201 l 9.075,-5.240039 z" />
        </g>
      </g>
    </g>
  </g>
</svg>
