<?xml version="1.0" encoding="UTF-8" standalone="no"?>
<svg
   xmlns:dc="http://purl.org/dc/elements/1.1/"
   xmlns:cc="http://creativecommons.org/ns#"
   xmlns:rdf="http://www.w3.org/1999/02/22-rdf-syntax-ns#"
   xmlns:svg="http://www.w3.org/2000/svg"
   xmlns="http://www.w3.org/2000/svg"
   xmlns:sodipodi="http://sodipodi.sourceforge.net/DTD/sodipodi-0.dtd"
   xmlns:inkscape="http://www.inkscape.org/namespaces/inkscape"
   width="24.0px"
   height="24.0px"
   viewBox="0 0 24.0 24.0"
   version="1.1"
   id="SVGRoot"
   sodipodi:docname="brand-source.svg"
   inkscape:version="1.0.2 (e86c8708, 2021-01-15)">
  <sodipodi:namedview
     pagecolor="#ffffff"
     bordercolor="#666666"
     borderopacity="1"
     objecttolerance="10"
     gridtolerance="10"
     guidetolerance="10"
     inkscape:pageopacity="0"
     inkscape:pageshadow="2"
     inkscape:window-width="1920"
     inkscape:window-height="1080"
     id="namedview23"
     showgrid="false"
     inkscape:zoom="35.25"
     inkscape:cx="6.5390071"
     inkscape:cy="12"
     inkscape:window-x="0"
     inkscape:window-y="0"
     inkscape:window-maximized="0"
     inkscape:current-layer="XMLID_1_" />
  <defs
     id="defs271" />
  <metadata
     id="metadata274">
    <rdf:RDF>
      <cc:Work
         rdf:about="">
        <dc:format>image/svg+xml</dc:format>
        <dc:type
           rdf:resource="http://purl.org/dc/dcmitype/StillImage" />
        <dc:title />
      </cc:Work>
    </rdf:RDF>
  </metadata>
  <g
     id="XMLID_1_"
     transform="matrix(0.16887526,0,0,0.16733745,2.8766959,0.82577434)"
     fill-rule="nonzero"
     fill="#ede9e0">
    <g
       id="XMLID_9_">
      <g
         id="XMLID_10_">
        <g
           id="XMLID_23_"
           transform="translate(0.591833,42.866039)" />
      </g>
    </g>
    <path
       id="path861"
       style="stroke-width:0.168105"
       transform="matrix(5.9215305,0,0,5.9759486,-17.034442,-4.934785)"
       d="m 12.175781,1.2890625 c -0.343186,-0.00744 -0.691063,0.063381 -1.015625,0.2148437 -0.472744,0.2031052 -0.849504,0.5765739 -1.054687,1.0449219 -0.2630295,0.5517454 -0.2870507,1.1854259 -0.06836,1.7558594 0.218691,0.5704333 0.66213,1.0280468 1.228516,1.2675781 V 5.9199219 H 9.9921875 v 1.2226562 l 1.2734375,0.3359375 v 1.8828125 l 1.744141,2.1992189 V 7.46875 L 14.244141,7.1425781 V 5.9199219 h -1.234375 v -0.34375 c 0.04007,-0.013081 0.07321,-0.025982 0.113281,-0.039063 0.472492,-0.2024469 0.848901,-0.5754151 1.054687,-1.0429688 0.40802,-0.8574262 0.22905,-1.876404 -0.447265,-2.546875 C 13.307772,1.5282208 12.747759,1.3014623 12.175781,1.2890625 Z M 11.560683,4.4611383 C 11.399904,4.3786953 11.268817,4.2489648 11.185414,4.0897539 10.929702,3.6544466 11.002,3.1030734 11.361486,2.7469711 c 0.359485,-0.3561023 0.915948,-0.4275725 1.355176,-0.1740544 0.159625,0.082337 0.289818,0.2113454 0.372912,0.3695159 0.259398,0.4353466 0.188679,0.9894489 -0.171927,1.3471009 -0.360605,0.3576519 -0.919734,0.4282382 -1.359321,0.1716048 z M 8.8066406,8 c -0.5808711,0.00129 -1.051438,0.4673876 -1.0527344,1.0429688 v 8.1679692 c -0.00573,0.491088 0.3783731,0.899118 0.8730469,0.929687 0.2510876,0.01233 0.49622,-0.07765 0.6777344,-0.25 0.1815144,-0.172349 0.2829847,-0.411055 0.28125,-0.660156 l -0.00586,-5.869141 1.6855469,2.119141 v 4.11914 c 0,1.703231 -0.966732,2.727638 -2.8925781,2.060547 C 8.2120812,19.605959 8.055376,19.542121 7.9023438,19.46875 6.8096148,18.880306 5.8844159,18.028202 5.2109375,16.992188 c 0.4008849,-0.142605 0.8297489,-0.188547 1.2519531,-0.132813 0.071127,0.0077 0.139727,-0.02947 0.1699219,-0.09375 0.030195,-0.06428 0.014659,-0.140506 -0.037109,-0.189453 -0.7380742,-0.660316 -1.6970129,-1.025038 -2.6914062,-1.023438 -0.3103309,0.0014 -0.6192819,0.03725 -0.921875,0.105469 -0.00125,2.82e-4 -0.00265,-2.83e-4 -0.00391,0 0.00107,0.0021 0.00283,0.0038 0.00391,0.0059 -0.071755,0.292027 -0.1073824,0.592014 -0.1054688,0.892579 -0.00191,0.964395 0.3638445,1.894207 1.0253907,2.601562 0.048937,0.0526 0.1279002,0.0673 0.1933593,0.03711 0.065459,-0.03019 0.102862,-0.09895 0.09375,-0.169921 -0.057119,-0.406399 -0.016685,-0.819409 0.1191407,-1.207032 l 0.021484,-0.04492 C 6.2584206,20.310644 8.9886647,22.171501 12.132812,23 c 1.613765,-0.422825 3.141336,-1.122002 4.511719,-2.066406 1.264713,-0.87086 2.373437,-1.934811 3.294922,-3.144532 l 0.01367,0.0293 c 0.135826,0.387623 0.178212,0.800633 0.121094,1.207032 -0.0091,0.07097 0.02829,0.13973 0.09375,0.169921 0.06546,0.03019 0.142469,0.01549 0.191406,-0.03711 0.656989,-0.712451 1.02093,-1.644288 1.019531,-2.609375 0.0019,-0.293908 -0.03298,-0.585209 -0.101562,-0.871094 0.0035,-0.0068 0.0082,-0.01277 0.01172,-0.01953 -0.0051,-0.0012 -0.01051,-7.6e-4 -0.01562,-0.002 -3.08e-4,-0.0012 3.08e-4,-0.0027 0,-0.0039 -0.0013,7.16e-4 -0.0026,0.0012 -0.0039,0.002 -0.297894,-0.06912 -0.604218,-0.103586 -0.910156,-0.101563 -0.994016,-0.0029 -1.951282,0.363422 -2.685547,1.027344 -0.05309,0.04849 -0.06953,0.126543 -0.03906,0.191406 0.03047,0.06486 0.100249,0.102779 0.171875,0.09375 0.421699,-0.05662 0.850263,-0.01422 1.251953,0.125 -0.671686,1.03414 -1.596264,1.8829 -2.6875,2.46875 -0.15652,0.07396 -0.315286,0.141218 -0.478516,0.199219 C 13.967203,20.318286 13,19.300887 13,17.597656 V 15.689453 L 14.638672,17.75 c 0.199924,0.249982 0.504279,0.396198 0.826172,0.396484 0.58087,-0.0013 1.051438,-0.467387 1.052734,-1.042968 V 8.9179688 C 16.522097,8.4370842 16.150055,8.0349809 15.666016,8 15.419398,7.9870313 15.177036,8.0755302 14.998047,8.2441406 14.819058,8.412751 14.718144,8.6459102 14.71875,8.890625 L 14.705078,14.794922 9.6386719,8.3964844 C 9.4387477,8.1465018 9.1363454,8.0002863 8.8144531,8 Z" />
  </g>
</svg>
